<mxfile host="app.diagrams.net" modified="2024-03-01T15:47:52.947Z" agent="Mozilla/5.0 (Windows NT 10.0; Win64; x64) AppleWebKit/537.36 (KHTML, like Gecko) Chrome/122.0.0.0 Safari/537.36" etag="mSjjRrGbFXHCF_v1FFtZ" version="24.0.0" type="github">
  <diagram name="Page-1" id="mF0ytIqqVk5pZFKCnWwC">
    <mxGraphModel dx="1199" dy="1178" grid="1" gridSize="10" guides="1" tooltips="1" connect="1" arrows="1" fold="1" page="1" pageScale="1" pageWidth="2336" pageHeight="1654" math="0" shadow="0">
      <root>
        <mxCell id="0" />
        <mxCell id="1" parent="0" />
      </root>
    </mxGraphModel>
  </diagram>
</mxfile>
